<svg version="1.2" xmlns="http://www.w3.org/2000/svg" viewBox="0 0 1080 1080" width="1080" height="1080">
	<title>EXTRALIMPO_ORG</title>
	<style>
		.s0 { fill: #000000;stroke: #ffffff;stroke-miterlimit:10;stroke-width: 8 } 
		.s1 { fill: #abd904 } 
		.s2 { fill: #ffffff } 
	</style>
	<g id="CONTORNO">
		<path id="&lt;Path&gt;" class="s0" d="m885.6 407.6c-15.1-10.9-31.4-12.7-40.5-12.7-5.1 0-10.5 0.5-15.9 1.4-27.8 5.1-50.7 19-66.2 40.3-1.1-0.9-2.1-1.9-3.2-2.8-0.9-0.7-1.8-1.3-2.7-1.9 2.4-27.5-0.7-144.4-0.7-144.4l-73.8 13.3c-3.6 0-7.5 0.4-11.4 1.1-11.3 2.1-21.4 6.5-30.1 13.1-1.1-0.5-2.3-0.9-3.4-1.2l0.1-4.9-48.9 8.9 1.3-36.6-95.9 31-0.4 12.2q-1.4 0.2-2.9 0.4-5.2 1-9.9 2.9c-4.9-8.5-11.9-15.5-20.6-20.3-9.1-5.1-19.2-7.7-30-7.7-4.2 0-8.6 0.4-12.9 1.2-13.9 2.5-26.1 8.5-36.4 17.8-9.7 8.9-16.9 19.5-21.1 31.6-4.4 12.5-5.5 25-3.3 37.3q1 5.3 2.8 10.4c-5 7.7-8.7 16.1-11.1 25-5-1.4-10.1-2.1-15.3-2.1-3.6 0-7.3 0.3-10.9 1-4.4 0.8-8.5 2-12.4 3.6l1.2-37.2-39.1 4.1c-7.2 0.7-12.7 1.4-16.9 2.2-24.1 4.4-47.4 14.3-69.2 29.4-21.7 15.1-38.9 33.3-51.2 54-14.1 23.7-19.1 47.6-14.9 71 5.1 28.2 19.5 41.8 30.7 48.3 9.9 5.7 21.4 8.6 34.4 8.7l-3.6 109-1.7 48.4 46.2-14.6c0 0 1.1-0.3 4-0.8 2.5-0.4 5.1-0.7 7.7-0.7 3.3 0 6.6 0.4 10.1 1.1 8 1.7 15.8 4.3 22.9 7.5 8.6 3.9 19.5 9.4 32.4 16.4 19.7 10.5 35.6 17.9 48.5 22.6 11.6 4.3 23.2 6.4 34.6 6.4 5.5 0 11-0.5 16.3-1.4 21.1-3.9 37.9-17.9 47.1-39.7 6.9-16.3 9.4-35.5 7.8-58.8l-0.2-2.9 87.6-15.9 0.5-16.2c10.3 6.6 22.7 10.1 36.2 10.1q3.8 0 7.7-0.3l-2.8 91.8 114.9-50.3 2-61.8q0.9-0.1 1.8-0.3c26.5-4.8 48.1-17.8 62.6-37.8 1.8 1.3 3.6 2.6 5.4 3.8 12.7 7.6 27.2 11.5 43.2 11.5 6.3 0 12.9-0.6 19.6-1.8 20.6-3.7 38.3-13.4 52.8-28.9 13.4-14.2 23.1-32.5 28.6-54.2 3.9-15.4 5.6-32.1 4.9-49.9q6.2-8 10.3-17.2c4-8.7 7.9-19.8 12-33.7l15.5-53.3z"/>
	</g>
	<g id="LIMPO">
		<g id="&lt;Group&gt;">
			<path id="&lt;Path&gt;" class="s1" d="m394.3 714.9q-17.7 3.2-35.2-0.4-17.5-3.6-42.8-11.9-16.3-5.4-27.6-8.3-11.4-2.9-21.7-3.6l8.5-264.2q-9.3 0.9-14.3 1.8-29 5.3-55.7 23.8-26.6 18.6-41.3 43.4-14.8 24.8-10.7 47.4 3.4 18.5 14.2 24.7 10.8 6.3 30 2.8-0.2-0.7-3.6-5.3-3.4-4.7-5.8-17.8-5.1-28.4 4.3-50.4 9.4-22 31.4-35.8l-8.4 255q2.8-0.9 8.1-1.8 15.2-2.8 31 0.6 15.8 3.3 29.9 9.8 14.2 6.4 34.5 17.3 27.1 14.5 44.1 20.7 17.1 6.3 33 3.4 14.5-2.6 21.6-19.3 7-16.6 5.2-43-12.8 8.2-28.7 11.1z"/>
			<path id="&lt;Compound Path&gt;" fill-rule="evenodd" class="s1" d="m756 497q4.5 24.8 1.8 51.4-2.6 26.6-16.7 47.5-14.1 20.9-42.3 26-20.2 3.6-28.8-6.5l-2.5 79.6-45.4 19.9 3-96.5c-1.3 2-2.6 3.8-4 5.4q-13.1 14.5-29.5 17.4-19.1 3.5-29.9-5.1-10.8-8.6-13.6-23.6-1.1-6.6-1.1-15.3 0.1-8.6 0.4-16.7 0.3-8.2 0.5-10.5 0.6-11.5 0.8-22.5 0.3-11.1-0.9-17.7-2.9-16-14.2-14-8.2 1.5-13 10.6-4.8 9.2-6.3 22.8l-3.1 104.7-45.2 8.1 3.3-112.5q0.3-3.9-0.5-8-2.5-13.8-11.9-12.1-8.8 1.6-13.8 10.7-5 9.2-6.4 23.1l-3.1 104.7-45.2 8.2 0.5-18q-3.2 4.9-7.1 8.6-16 15.4-33.9 18.6-15.1 2.8-26.1-5-10.9-7.7-14.4-26.6-1.4-7.8-1.1-20.8l3.1-104.7 45.2-8.2-3.3 110.9q-0.4 4.9 0.6 10.2 1.1 6.3 4.6 8.5 3.5 2.1 10.4 0.8 9.1-1.6 15.5-10.7 6.4-9.1 7.7-21.8l3.2-104.9 45.2-8.2-0.5 17q12.8-20.8 35.1-24.9 27.6-5 37.2 21.2 12.5-29.8 38.9-34.6 16-2.9 27 4.2 11 7.1 14.2 25 1.7 9.1 1.5 20.6-0.2 11.6-1.4 28.3-0.7 10.2-1.1 19.9-0.3 9.6 0.6 14.9 1.2 6.3 4.6 9.3 3.5 2.9 10.4 1.7 9.4-1.7 13.8-9.5 4.5-7.8 7.6-23l3.5-116.7 45.2-8.2-0.7 24.5q13.2-16.4 34.3-20.2 17.6-3.2 30 6.6 12.5 9.7 17.3 36.1zm-43.2 6.8q-4.8-26-20.5-23.2-5.6 1-10.7 6.2-5.1 5.1-8.1 13.1l-2.7 91.3q3.8 6.8 13.3 5.1 15.1-2.7 22.4-18.7 7.3-15.9 8.3-36.3 1-20.5-2-37.5z"/>
			<path id="&lt;Compound Path&gt;" fill-rule="evenodd" class="s1" d="m911.3 437.8q-5.4 18.5-10.2 29.2-4.9 10.8-14.5 18.7 3.5 29.9-2.7 54-6.2 24.2-20.3 39.2-14.2 15.1-34 18.6-23.2 4.3-38.9-5.2-15.7-9.5-20.3-35.3-3.9-21.7-0.1-49.1 3.8-27.5 19.5-49.9 15.7-22.5 45.5-27.9 37.1-6.7 47.6 35.2 6.6-2.8 10.9-9.9 4.2-7.1 7.5-15.8zm-50.6 57.5q-8-1.5-10.1-12.8-2.2-12.3 5.8-17.9-2.4-10-5.8-13.4-3.4-3.5-9.3-2.4-10.4 1.9-17.1 18.5-6.7 16.6-8.7 38.9-2 22.3 0.9 38.3 2.7 15.1 7.1 19.6 4.4 4.6 13.5 2.9 11.6-2.1 18.3-22.7 6.6-20.7 5.4-49z"/>
			<path id="&lt;Path&gt;" class="s1" d="m318.5 501.5q8.5 5.9 18.9 4.1 10.4-1.9 16.5-10.5 6-8.5 4.2-18.9-1.9-10.4-10.6-16.4-8.8-6.1-19.1-4.2-10.4 1.9-16.3 10.6-5.9 8.7-4 19 1.9 10.4 10.4 16.3z"/>
		</g>
	</g>
	<g id="EXTRA">
		<g id="&lt;Group&gt;">
			<path id="&lt;Path&gt;" class="s2" d="m394.5 477.7q11.1 6.1 26.6 3.3 15.6-2.8 31.1-13.2 15.6-10.3 23.2-23.6 5.7 12.6 11.3 17.3 5.6 4.7 14.3 3.1 10.3-1.8 19.4-10.8c2.7-2.6 5-6.1 6.9-10.4q2.3 6.4 6.8 9.5 6.4 4.6 15.2 3 10.5-1.9 19.9-10.9 2.3-2.2 4.2-5.1l-0.4 10.6 26.5-4.8 2.1-72.6q3.5-4.6 5.9-6.7 2.4-2 6.3-2.7 1.4-0.3 2.2 0.7 0.7 1 1.7 3.3 1.4 3.6 3.2 5.2 1.7 1.7 5.7 1 6.3-1.1 9-5.8 2.8-4.7 1.8-10-1-5.7-5.1-9.2-4.2-3.4-10-2.3-5.9 1-10.5 4.9-4.5 3.9-9.7 10.5l0.3-11.8-26.5 4.8-1.8 61.4q-0.8 7.4-4.5 12.7-3.8 5.4-9.2 6.3-4 0.8-6-0.5-2.1-1.2-2.7-4.9-0.6-3.1-0.4-6l1.8-57.3 11.1-2 0.1-7.6-11 1.9 1-30.1-26.6 8.6-0.9 26.3-6.1 1.1-0.1 7.7 6.1-1.1-1.7 53.6q-0.8 7.6-4.5 12.9-3.8 5.4-9.2 6.3-3.8 0.7-6.7-1.6-2.9-2.3-4.8-7-1.9-4.7-2.2-5.6l-3.4-8.9q11.4-17 15.7-28.4 4.3-11.3 2.7-20.1-1.3-7.2-5.4-11.2-4.2-4-10-2.9-4.5 0.8-7 3.6-2.5 2.8-1.8 6.9 0.8 4.6 3.4 7.1 2.5 2.4 7.1 1.6 0.6-0.1 3.1-0.9 0.3 0.5 0.6 2.2 0.9 4.9-2.3 13.5-3.2 8.5-9.9 18.9l-11.8-31.7-26 4.7 18.4 48.7q-6.3 10.5-16.7 18.2-10.4 7.8-20.5 9.6-8.6 1.6-14.5-2.1-5.9-3.7-7.6-13.3-1.6-8.6 0.9-18.8 2.5-10.3 8.8-18.8 6.2-8.6 15.2-12.3-9.8-0.7-15.6-6.5-5.8-5.9-7.4-14.8-1.2-6.4 0.1-12.8 1.3-6.4 5-11 3.6-4.5 9-5.5 4.2-0.8 7.6 1.2 3.4 1.9 4.3 7.3 0.9 4.9-0.6 10.3-1.4 5.4-4.6 7.1 4.6 4.3 9.6 3.4 5.5-0.9 8.6-7.2 3-6.2 1.5-14.3-1.9-10.9-10.4-15.6-8.4-4.8-20-2.7-11.2 2.1-19.5 9.5-8.2 7.5-11.8 17.6-3.6 10.2-1.8 19.8 1.1 6.4 4.9 11.7 3.8 5.3 10.3 8.3-9.9 4.4-16.2 13.4-6.4 8.9-8.7 19.7-2.3 10.8-0.5 20.7 2.9 16.4 14.1 22.4z"/>
			<path id="&lt;Compound Path&gt;" fill-rule="evenodd" class="s2" d="m641.6 408.6q-2.4-13.6 0.3-29.6 2.7-16 11.6-28.3 8.9-12.3 23.8-15 7.5-1.4 11.7 0.5 4.1 1.9 4.9 6.2l0.2 1.2 0.3-10.1 26.4-4.8-1.9 65q-0.2 2.9 0.3 6 0.7 3.7 2.7 4.9 2.1 1.3 6.1 0.5 2.6-0.4 3.9-1.4-2.2 11-5.1 15.8-2.9 4.8-9.9 6.1-7.5 1.3-13.1-2.3-5.5-3.7-8-11.6-8.2 19.2-24.3 22.1-10.5 1.9-18.8-4-8.3-5.9-11.1-21.2zm26.8-7.5q1.7 9.2 4.8 11.3 3.1 2.1 7 1.4 4.6-0.8 8.3-6 3.7-5.1 4-13l1.3-43.1q-0.4-2.4-2.6-4.4-2.3-2-6.2-1.3-7.3 1.4-11.7 11-4.3 9.6-5.4 22.3-1.2 12.6 0.5 21.8z"/>
		</g>
	</g>
</svg>